<?xml version="1.0" encoding="iso-8859-1"?>
<!-- Generator: Adobe Illustrator 19.0.0, SVG Export Plug-In . SVG Version: 6.00 Build 0)  -->
<svg version="1.1" id="Layer_1" xmlns="http://www.w3.org/2000/svg" xmlns:xlink="http://www.w3.org/1999/xlink" x="0px" y="0px"
	 viewBox="0 0 511.999 511.999" style="enable-background:new 0 0 511.999 511.999;" xml:space="preserve">
<g>
	<g>
		<path d="M386.247,393.339c-11.234-5.787-23.733-10.86-38.188-15.498c-9.621-5.065-33.321-18.491-43.542-28.137v-26.192
			c32.68-18.787,55.045-52.405,62.206-93.53c18.607-5.313,34.799-22.687,34.799-38.653c0-16.219-12.185-26.993-32.335-29.224
			v-19.129c0.158-4.579,1.563-67.652-37.994-108.823C309.42,11.491,279.588,0,242.528,0c-37.158,0-67.044,11.513-88.826,34.219
			c-39.48,41.157-38.001,104.125-37.834,108.761v19.125c-20.151,2.231-32.335,13.004-32.335,29.224
			c0,15.966,16.194,33.339,34.799,38.653c7.162,41.133,29.533,74.756,62.206,93.531v26.19
			c-10.217,9.641-33.938,23.079-43.554,28.144C31.922,411.938,29.685,474.184,29.641,476.823l-0.001,35.176h425.773v-35.11
			c-0.004-0.509-0.175-10.398-6.421-24.172h33.366v-59.308H386.21L386.247,393.339z M165.458,45.361
			c18.605-19.353,44.534-29.165,77.07-29.165c32.442,0,58.322,9.793,76.918,29.106c27.707,28.776,32.611,71.659,33.422,89.245
			c-69.062-2.924-132.388-41.328-133.042-41.73l-5.447-3.351l-4.523,4.522c-33.19,33.19-63.757,42.51-77.815,45.119
			C132.207,125.9,134.962,77.083,165.458,45.361z M133.496,222.127l-0.841-6.091l-6.093-0.826
			c-11.717-1.588-26.834-13.453-26.834-23.88c0-12.488,18.552-13.459,24.237-13.459h8.098v-22.305
			c14.834-2.216,48.104-10.995,84.763-45.763c17.497,9.815,73.821,38.599,136.169,40.961l-0.005,27.106h8.098
			c5.686,0,24.237,0.97,24.237,13.459c0,10.427-15.117,22.292-26.833,23.88l-6.094,0.826l-0.841,6.091
			c-5.559,40.254-27.019,72.846-58.86,89.412c-15.154,7.839-32.033,11.812-50.171,11.812c-18.337,0-35.203-3.968-50.155-11.805
			C160.516,294.972,139.055,262.381,133.496,222.127z M288.321,331.229v18.657c-5.531,5.783-23.048,21.967-45.794,21.967
			c-22.598,0-40.237-16.216-45.794-21.984v-18.596c14.14,5.487,29.485,8.273,45.794,8.273
			C258.707,339.546,274.051,336.746,288.321,331.229z M439.219,495.804H45.836v-18.698c0.052-0.948,0.975-13.94,12.483-30.19
			c20.263-28.612,57.024-45.086,84.297-53.868l0.654-0.211l0.61-0.319c3.353-1.75,29.401-15.505,44.481-28.135
			c9.324,8.777,28.869,23.665,54.166,23.665c25.296,0,44.842-14.888,54.166-23.665c15.08,12.629,41.129,26.385,44.481,28.135
			l0.622,0.325l0.668,0.213c0.366,0.117,0.715,0.236,1.078,0.353h-49.831v59.31h137.064c7.838,13.493,8.415,23.684,8.443,24.34
			V495.804z M466.164,409.605v26.918H309.905v-26.918H466.164z"/>
	</g>
</g>
<g>
</g>
<g>
</g>
<g>
</g>
<g>
</g>
<g>
</g>
<g>
</g>
<g>
</g>
<g>
</g>
<g>
</g>
<g>
</g>
<g>
</g>
<g>
</g>
<g>
</g>
<g>
</g>
<g>
</g>
</svg>
